<svg xmlns="http://www.w3.org/2000/svg" viewBox="0 0 24 24">
  <rect width="24" height="24" rx="5" fill="#6b21a8"/>
  <g fill="none" stroke="white" stroke-linecap="round" stroke-linejoin="round">
    <!-- Grande main adulte -->
    <path d="M4 21V11a1 1 0 0 1 2 0v5" stroke-width="1.5"/>
    <path d="M6 12V8.5a1 1 0 0 1 2 0V12" stroke-width="1.5"/>
    <path d="M8 11V7.5a1 1 0 0 1 2 0V12" stroke-width="1.5"/>
    <path d="M10 11.5V9a1 1 0 0 1 2 0v3" stroke-width="1.5"/>
    <path d="M6 16c0 0-1.5-1-1.5-3" stroke-width="1.5"/>
    <!-- Petite main enfant -->
    <path d="M15 17v-3a0.7 0.7 0 0 1 1.4 0v2" stroke-width="1.3"/>
    <path d="M16.4 14.5v-1.5a0.7 0.7 0 0 1 1.4 0v2" stroke-width="1.3"/>
    <path d="M17.8 15v-1a0.7 0.7 0 0 1 1.4 0v1.5" stroke-width="1.3"/>
    <path d="M19.2 15.5v-0.5a0.7 0.7 0 0 1 1.4 0v1.5" stroke-width="1.3"/>
    <path d="M15 17c0 1.5 1.2 3 3.5 3s3.1-1.5 3.1-3" stroke-width="1.3"/>
  </g>
</svg>
